# Blender 4.2.1 LTS
# www.blender.org
mtllib model.mtl
o Cube
v 1.000000 1.000000 -1.000000
v 1.000000 -1.000000 -1.000000
v 1.000000 1.000000 1.000000
v 1.000000 -1.000000 1.000000
v -1.000000 1.000000 -1.000000
v -1.000000 -1.000000 -1.000000
v -1.000000 1.000000 1.000000
v -1.000000 -1.000000 1.000000
vn -0.0000 1.0000 -0.0000
vn -0.0000 -0.0000 1.0000
vn -1.0000 -0.0000 -0.0000
vn -0.0000 -1.0000 -0.0000
vn 1.0000 -0.0000 -0.0000
vn -0.0000 -0.0000 -1.0000
vt 0.625000 0.500000
vt 0.875000 0.500000
vt 0.875000 0.750000
vt 0.625000 0.750000
vt 0.375000 0.750000
vt 0.625000 1.000000
vt 0.375000 1.000000
vt 0.375000 0.000000
vt 0.625000 0.000000
vt 0.625000 0.250000
vt 0.375000 0.250000
vt 0.125000 0.500000
vt 0.375000 0.500000
vt 0.125000 0.750000
s 0
usemtl Material
f 1/1/1 5/2/1 7/3/1 3/4/1
f 4/5/2 3/4/2 7/6/2 8/7/2
f 8/8/3 7/9/3 5/10/3 6/11/3
f 6/12/4 2/13/4 4/5/4 8/14/4
f 2/13/5 1/1/5 3/4/5 4/5/5
f 6/11/6 5/10/6 1/1/6 2/13/6
o Mball
v 0.600000 2.445502 -0.600000
v 0.600000 2.269621 -0.775880
v 0.775880 2.269621 -0.600000
v 0.600000 1.869621 -0.960788
v 0.960788 1.869621 -0.600000
v 0.600000 1.469621 -0.960788
v 0.960788 1.469621 -0.600000
v 1.000000 1.469621 -0.530196
v 1.000000 1.869621 -0.530196
v 1.115109 1.469621 -0.200000
v 1.115109 1.869621 -0.200000
v 1.000000 1.139425 -0.200000
v 1.000000 1.139425 0.200000
v 1.115109 1.469621 0.200000
v 1.000000 1.469621 0.530196
v 1.000000 1.869621 0.530196
v 1.115109 1.869621 0.200000
v 1.000000 2.199817 0.200000
v 1.000000 2.199817 -0.200000
v 0.960788 2.269621 0.200000
v 0.960788 2.269621 -0.200000
v 0.600000 2.630409 0.200000
v 0.600000 2.630409 -0.200000
v 0.530196 2.669621 0.200000
v 0.530196 2.669621 -0.200000
v 0.200000 2.784730 0.200000
v 0.200000 2.784730 -0.200000
v 0.200000 2.669621 0.530196
v -0.200000 2.784730 0.200000
v -0.200000 2.669621 0.530196
v -0.200000 2.630409 0.600000
v 0.200000 2.630409 0.600000
v 0.200000 2.269621 0.960788
v -0.200000 2.269621 0.960788
v -0.200000 2.199817 1.000000
v 0.200000 2.199817 1.000000
v 0.200000 1.869621 1.115109
v -0.200000 1.869621 1.115109
v -0.200000 1.469621 1.115109
v 0.200000 1.469621 1.115109
v -0.200000 1.139425 1.000000
v 0.200000 1.139425 1.000000
v 0.200000 1.069621 0.960788
v -0.200000 1.069621 0.960788
v -0.200000 0.708833 0.600000
v 0.200000 0.708833 0.600000
v 0.200000 0.669621 0.530196
v -0.200000 0.669621 0.530196
v -0.200000 0.554512 0.200000
v 0.200000 0.554512 0.200000
v 0.200000 0.554512 -0.200000
v -0.200000 0.554512 -0.200000
v 0.200000 0.669621 -0.530196
v -0.200000 0.669621 -0.530196
v -0.200000 0.708833 -0.600000
v 0.200000 0.708833 -0.600000
v 0.200000 1.069621 -0.960788
v -0.200000 1.069621 -0.960788
v -0.200000 1.139425 -1.000000
v 0.200000 1.139425 -1.000000
v 0.200000 1.469621 -1.115109
v -0.200000 1.469621 -1.115109
v 0.200000 1.869621 -1.115109
v -0.200000 1.869621 -1.115109
v -0.200000 2.199817 -1.000000
v 0.200000 2.199817 -1.000000
v 0.200000 2.269621 -0.960788
v -0.200000 2.269621 -0.960788
v -0.200000 2.630409 -0.600000
v 0.200000 2.630409 -0.600000
v 0.200000 2.669621 -0.530196
v -0.200000 2.669621 -0.530196
v -0.200000 2.784730 -0.200000
v -0.530196 2.669621 -0.200000
v -0.530196 2.669621 0.200000
v -0.600000 2.630409 0.200000
v -0.600000 2.630409 -0.200000
v -0.960788 2.269621 0.200000
v -0.960788 2.269621 -0.200000
v -1.000000 2.199817 0.200000
v -1.000000 2.199817 -0.200000
v -1.000000 1.869621 -0.530196
v -0.960788 1.869621 -0.600000
v -0.775880 2.269621 -0.600000
v -1.000000 1.469621 -0.530196
v -0.960788 1.469621 -0.600000
v -1.000000 1.139425 -0.200000
v -0.960788 1.069621 -0.200000
v -0.775880 1.069621 -0.600000
v -0.600000 1.069621 -0.775880
v -0.600000 1.469621 -0.960788
v -0.600000 0.893741 -0.600000
v -1.000000 1.139425 0.200000
v -0.960788 1.069621 0.200000
v -0.600000 0.708833 0.200000
v -0.600000 0.708833 -0.200000
v -0.600000 0.893741 0.600000
v -0.775880 1.069621 0.600000
v -0.530196 0.669621 0.200000
v -0.530196 0.669621 -0.200000
v -1.000000 1.469621 0.530196
v -0.960788 1.469621 0.600000
v -1.000000 1.869621 0.530196
v -0.960788 1.869621 0.600000
v -0.600000 1.469621 0.960788
v -0.600000 1.869621 0.960788
v -0.530196 1.869621 1.000000
v -0.530196 1.469621 1.000000
v -1.115109 1.469621 0.200000
v -1.115109 1.869621 0.200000
v -1.115109 1.469621 -0.200000
v -1.115109 1.869621 -0.200000
v -0.600000 1.069621 0.775880
v -0.600000 1.869621 -0.960788
v -0.530196 1.469621 -1.000000
v -0.530196 1.869621 -1.000000
v -0.600000 2.269621 -0.775880
v -0.600000 2.445502 -0.600000
v -0.775880 2.269621 0.600000
v -0.600000 2.445502 0.600000
v -0.600000 2.269621 0.775880
v 0.530196 1.469621 -1.000000
v 0.530196 1.869621 -1.000000
v 0.600000 0.893741 -0.600000
v 0.600000 1.069621 -0.775880
v 0.775880 1.069621 -0.600000
v 0.600000 0.708833 -0.200000
v 0.960788 1.069621 -0.200000
v 0.600000 0.708833 0.200000
v 0.960788 1.069621 0.200000
v 0.600000 0.893741 0.600000
v 0.775880 1.069621 0.600000
v 0.600000 1.069621 0.775880
v 0.600000 1.469621 0.960788
v 0.960788 1.469621 0.600000
v 0.600000 1.869621 0.960788
v 0.960788 1.869621 0.600000
v 0.600000 2.269621 0.775880
v 0.775880 2.269621 0.600000
v 0.600000 2.445502 0.600000
v 0.530196 1.469621 1.000000
v 0.530196 1.869621 1.000000
v 0.530196 0.669621 -0.200000
v 0.530196 0.669621 0.200000
vn 0.4976 0.7104 -0.4976
vn 0.4988 0.4985 -0.7090
vn 0.7104 0.4976 -0.4976
vn 0.5741 0.1815 -0.7984
vn 0.7942 0.1886 -0.5777
vn 0.5777 -0.1886 -0.7942
vn 0.7984 -0.1815 -0.5741
vn 0.8958 -0.1872 -0.4031
vn 0.8847 0.2058 -0.4182
vn 0.9734 -0.1621 -0.1621
vn 0.9734 0.1621 -0.1621
vn 0.8926 -0.4108 -0.1858
vn 0.8964 -0.4008 0.1893
vn 0.9734 -0.1621 0.1621
vn 0.8847 -0.2058 0.4182
vn 0.8958 0.1872 0.4031
vn 0.9734 0.1621 0.1621
vn 0.8926 0.4108 0.1858
vn 0.8964 0.4008 -0.1893
vn 0.7906 0.5867 0.1755
vn 0.7998 0.5718 -0.1826
vn 0.5774 0.7945 0.1882
vn 0.5718 0.7998 -0.1826
vn 0.4182 0.8847 0.2058
vn 0.4008 0.8964 -0.1893
vn 0.1621 0.9734 0.1621
vn 0.1621 0.9734 -0.1621
vn 0.2058 0.8847 0.4182
vn -0.1621 0.9734 0.1621
vn -0.1858 0.8926 0.4108
vn -0.1755 0.7906 0.5867
vn 0.1882 0.7945 0.5774
vn 0.1826 0.5718 0.7998
vn -0.1826 0.5718 0.7998
vn -0.1893 0.4008 0.8964
vn 0.1893 0.4008 0.8964
vn 0.1621 0.1621 0.9734
vn -0.1621 0.1621 0.9734
vn -0.1621 -0.1621 0.9734
vn 0.1621 -0.1621 0.9734
vn -0.1858 -0.4108 0.8926
vn 0.1858 -0.4108 0.8926
vn 0.1755 -0.5867 0.7906
vn -0.1755 -0.5867 0.7906
vn -0.1815 -0.7984 0.5741
vn 0.1886 -0.7942 0.5777
vn 0.2058 -0.8847 0.4182
vn -0.1872 -0.8958 0.4031
vn -0.1621 -0.9734 0.1621
vn 0.1621 -0.9734 0.1621
vn 0.1621 -0.9734 -0.1621
vn -0.1621 -0.9734 -0.1621
vn 0.2058 -0.8847 -0.4182
vn -0.2058 -0.8847 -0.4182
vn -0.1882 -0.7945 -0.5774
vn 0.1882 -0.7945 -0.5774
vn 0.1826 -0.5718 -0.7998
vn -0.1815 -0.5741 -0.7984
vn -0.1872 -0.4031 -0.8958
vn 0.1893 -0.4008 -0.8964
vn 0.1621 -0.1621 -0.9734
vn -0.1621 -0.1621 -0.9734
vn 0.1621 0.1621 -0.9734
vn -0.1621 0.1621 -0.9734
vn -0.2058 0.4182 -0.8847
vn 0.1858 0.4108 -0.8926
vn 0.1755 0.5867 -0.7906
vn -0.1882 0.5774 -0.7945
vn -0.1826 0.7998 -0.5718
vn 0.1886 0.7942 -0.5777
vn 0.2058 0.8847 -0.4182
vn -0.1893 0.8964 -0.4008
vn -0.1621 0.9734 -0.1621
vn -0.4182 0.8847 -0.2058
vn -0.4031 0.8958 0.1872
vn -0.5741 0.7984 0.1815
vn -0.5777 0.7942 -0.1886
vn -0.7998 0.5718 0.1826
vn -0.7906 0.5867 -0.1755
vn -0.8964 0.4008 0.1893
vn -0.8926 0.4108 -0.1858
vn -0.8958 0.1872 -0.4031
vn -0.7984 0.1815 -0.5741
vn -0.7090 0.4985 -0.4988
vn -0.8847 -0.2058 -0.4182
vn -0.7942 -0.1886 -0.5777
vn -0.8964 -0.4008 -0.1893
vn -0.7998 -0.5718 -0.1826
vn -0.7104 -0.4976 -0.4976
vn -0.4985 -0.4988 -0.7090
vn -0.5867 -0.1755 -0.7906
vn -0.4960 -0.7127 -0.4960
vn -0.8926 -0.4108 0.1858
vn -0.7906 -0.5867 0.1755
vn -0.5867 -0.7906 0.1755
vn -0.5774 -0.7945 -0.1882
vn -0.4985 -0.7090 0.4988
vn -0.7090 -0.4985 0.4988
vn -0.4108 -0.8926 0.1858
vn -0.4182 -0.8847 -0.2058
vn -0.8958 -0.1872 0.4031
vn -0.7984 -0.1815 0.5741
vn -0.8847 0.2058 0.4182
vn -0.7942 0.1886 0.5777
vn -0.5741 -0.1815 0.7984
vn -0.5777 0.1886 0.7942
vn -0.4182 0.2058 0.8847
vn -0.4031 -0.1872 0.8958
vn -0.9734 -0.1621 0.1621
vn -0.9734 0.1621 0.1621
vn -0.9734 -0.1621 -0.1621
vn -0.9734 0.1621 -0.1621
vn -0.4988 -0.4985 0.7090
vn -0.5774 0.1882 -0.7945
vn -0.4108 -0.1858 -0.8926
vn -0.4182 0.2058 -0.8847
vn -0.4960 0.4960 -0.7127
vn -0.4976 0.7104 -0.4976
vn -0.7104 0.4976 0.4976
vn -0.4988 0.7090 0.4985
vn -0.4976 0.4976 0.7104
vn 0.4182 -0.2058 -0.8847
vn 0.4031 0.1872 -0.8958
vn 0.4960 -0.7127 -0.4960
vn 0.4976 -0.4976 -0.7104
vn 0.7090 -0.4985 -0.4988
vn 0.5774 -0.7945 -0.1882
vn 0.7906 -0.5867 -0.1755
vn 0.5718 -0.7998 0.1826
vn 0.7998 -0.5718 0.1826
vn 0.4976 -0.7104 0.4976
vn 0.7104 -0.4976 0.4976
vn 0.4988 -0.4985 0.7090
vn 0.5741 -0.1815 0.7984
vn 0.7942 -0.1886 0.5777
vn 0.5777 0.1886 0.7942
vn 0.7984 0.1815 0.5741
vn 0.4976 0.4976 0.7104
vn 0.7090 0.4985 0.4988
vn 0.4960 0.7127 0.4960
vn 0.4031 -0.1872 0.8958
vn 0.4182 0.2058 0.8847
vn 0.4182 -0.8847 -0.2058
vn 0.4008 -0.8964 0.1893
s 1
f 11//9 10//8 9//7
f 10//8 11//9 13//11 12//10
f 12//10 13//11 15//13 14//12
f 15//13 13//11 17//15 16//14
f 17//15 19//17 18//16 16//14
f 16//14 18//16 20//18
f 20//18 18//16 22//20 21//19
f 22//20 23//21 21//19
f 22//20 25//23 24//22 23//21
f 24//22 25//23 26//24
f 25//23 19//17 27//25 26//24
f 27//25 29//27 28//26 26//24
f 28//26 29//27 31//29 30//28
f 31//29 33//31 32//30 30//28
f 32//30 33//31 35//33 34//32
f 36//34 32//30 34//32
f 38//36 36//34 34//32 37//35
f 40//38 36//34 38//36 39//37
f 42//40 41//39 40//38 39//37
f 44//42 41//39 42//40 43//41
f 46//44 45//43 44//42 43//41
f 48//46 45//43 46//44 47//45
f 50//48 48//46 47//45 49//47
f 52//50 51//49 50//48 49//47
f 54//52 51//49 52//50 53//51
f 56//54 55//53 54//52 53//51
f 58//56 55//53 56//54 57//55
f 60//58 59//57 58//56 57//55
f 62//60 61//59 59//57 60//58
f 64//62 61//59 62//60 63//61
f 66//64 65//63 64//62 63//61
f 68//66 65//63 66//64 67//65
f 70//68 69//67 68//66 67//65
f 72//70 71//69 69//67 70//68
f 74//72 71//69 72//70 73//71
f 76//74 75//73 74//72 73//71
f 78//76 75//73 76//74 77//75
f 80//78 79//77 78//76 77//75
f 35//33 79//77 80//78 81//79
f 80//78 82//80 81//79
f 81//79 82//80 83//81 37//35
f 83//81 82//80 85//83 84//82
f 85//83 87//85 86//84 84//82
f 86//84 87//85 89//87 88//86
f 92//90 91//89 90//88 89//87
f 87//85 92//90 89//87
f 90//88 91//89 94//92 93//91
f 94//92 97//95 96//94 95//93
f 93//91 94//92 95//93
f 97//95 94//92 99//97 98//96
f 97//95 98//96 100//98
f 95//93 96//94 102//100 101//99
f 102//100 96//94 104//102 103//101
f 106//104 102//100 103//101 105//103
f 104//102 108//106 107//105 103//101
f 106//104 110//108 109//107 101//99
f 102//100 106//104 101//99
f 110//108 112//110 111//109 109//107
f 114//112 112//110 110//108 113//111
f 116//114 115//113 114//112 113//111
f 111//109 118//116 117//115 109//107
f 118//116 111//109 88//86
f 118//116 120//118 119//117 117//115
f 113//111 110//108 106//104 121//119
f 109//107 117//115 101//99
f 117//115 119//117 95//93 101//99
f 119//117 93//91 95//93
f 94//92 91//89 122//120 99//97
f 122//120 124//122 123//121 99//97
f 119//117 120//118 90//88 93//91
f 91//89 92//90 125//123 122//120
f 125//123 92//90 126//124
f 112//110 127//125 86//84 88//86
f 111//109 112//110 88//86
f 89//87 120//118 118//116 88//86
f 126//124 92//90 87//85 85//83
f 84//82 86//84 127//125 128//126
f 127//125 129//127 128//126
f 72//70 124//122 73//71
f 71//69 131//129 130//128 69//67
f 123//121 124//122 72//70 70//68
f 69//67 130//128 68//66
f 123//121 70//68 67//65
f 65//63 133//131 132//130 64//62
f 133//131 134//132 132//130
f 132//130 134//132 136//134 135//133
f 135//133 136//134 138//136 137//135
f 137//135 138//136 140//138 139//137
f 140//138 141//139 139//137
f 140//138 143//141 142//140 141//139
f 143//141 145//143 144//142 142//140
f 145//143 147//145 146//144 144//142
f 146//144 147//145 148//146
f 144//142 150//148 149//147 142//140
f 152//150 151//149 135//133 137//135
f 98//96 66//64 63//61 100//98
f 135//133 151//149 61//59 64//62
f 132//130 135//133 64//62
f 63//61 62//60 108//106 104//102
f 100//98 63//61 104//102
f 108//106 62//60 60//58
f 59//57 151//149 152//150 58//56
f 107//105 108//106 60//58 57//55
f 152//150 55//53 58//56
f 56//54 107//105 57//55
f 152//150 137//135 139//137 54//52
f 55//53 152//150 54//52
f 107//105 56//54 53//51 105//103
f 103//101 107//105 105//103
f 53//51 52//50 121//119 105//103
f 141//139 142//140 149//147 50//48
f 51//49 141//139 50//48
f 49//47 116//114 113//111 121//119
f 52//50 49//47 121//119
f 149//147 48//46 50//48
f 47//45 116//114 49//47
f 149//147 150//148 45//43 48//46
f 46//44 115//113 116//114 47//45
f 115//113 46//44 43//41
f 144//142 146//144 41//39 44//42
f 150//148 144//142 44//42
f 43//41 42//40 129//127 114//112
f 115//113 43//41 114//112
f 41//39 146//144 148//146 40//38
f 129//127 42//40 39//37 128//126
f 83//81 38//36 37//35
f 34//32 35//33 81//79 37//35
f 33//31 31//29 9//7 78//76
f 79//77 33//31 78//76
f 24//22 145//143 143//141 23//21
f 138//136 136//134 20//18 21//19
f 18//16 19//17 25//23 22//20
f 130//128 131//129 12//10 14//12
f 13//11 11//9 29//27 27//25
f 17//15 13//11 27//25
f 10//8 12//10 131//129 74//72
f 75//73 10//8 74//72
f 14//12 15//13 134//132 133//131
f 29//27 11//9 9//7 31//29
f 19//17 17//15 27//25
f 134//132 15//13 16//14 20//18
f 136//134 134//132 20//18
f 147//145 28//26 30//28 148//146
f 147//145 145//143 24//22 26//24
f 28//26 147//145 26//24
f 143//141 140//138 138//136 21//19
f 23//21 143//141 21//19
f 9//7 10//8 75//73 78//76
f 131//129 71//69 74//72
f 14//12 133//131 65//63 68//66
f 130//128 14//12 68//66
f 33//31 79//77 35//33
f 61//59 151//149 59//57
f 30//28 32//30 36//34 40//38
f 148//146 30//28 40//38
f 45//43 150//148 44//42
f 139//137 141//139 51//49 54//52
f 77//75 76//74 125//123 126//124
f 76//74 73//71 124//122 122//120
f 125//123 76//74 122//120
f 123//121 67//65 66//64 98//96
f 99//97 123//121 98//96
f 80//78 77//75 126//124 85//83
f 82//80 80//78 85//83
f 90//88 120//118 89//87
f 96//94 97//95 100//98 104//102
f 38//36 83//81 84//82 128//126
f 39//37 38//36 128//126
f 129//127 127//125 112//110 114//112
f 121//119 106//104 105//103
